<svg xmlns="http://www.w3.org/2000/svg" viewBox="0 0 1600 900" role="img" aria-labelledby="title desc">
  <title id="title">Kỹ thuật viên Điện Lạnh 247 kiểm tra hệ thống điều hòa</title>
  <desc id="desc">Minh họa hiện đại, tối giản về kỹ thuật viên và hệ thống điều hòa.</desc>
  <defs>
    <linearGradient id="bg" x1="0" y1="0" x2="1" y2="1">
      <stop offset="0" stop-color="#061527"/>
      <stop offset="1" stop-color="#075985"/>
    </linearGradient>
    <linearGradient id="uniform" x1="0" y1="0" x2="1" y2="1">
      <stop offset="0" stop-color="#22d3ee"/>
      <stop offset="1" stop-color="#2563eb"/>
    </linearGradient>
  </defs>
  <rect width="1600" height="900" fill="url(#bg)"/>
  <circle cx="1390" cy="90" r="280" fill="#22d3ee" opacity=".12"/>
  <circle cx="1190" cy="790" r="330" fill="#3b82f6" opacity=".13"/>
  <path d="M1000 0h600v900H820c190-140 285-290 285-450S1068 145 1000 0Z" fill="#0f172a" opacity=".2"/>

  <g transform="translate(820 120)">
    <rect width="650" height="225" rx="38" fill="#f8fafc"/>
    <rect x="48" y="52" width="554" height="22" rx="11" fill="#94a3b8" opacity=".42"/>
    <rect x="70" y="112" width="465" height="58" rx="20" fill="#dbeafe"/>
    <path d="M112 141h365" stroke="#0ea5e9" stroke-width="10" stroke-linecap="round"/>
    <circle cx="579" cy="43" r="12" fill="#22c55e"/>
    <path d="M125 246v122M325 246v122M525 246v122" stroke="#67e8f9" stroke-width="16" stroke-linecap="round" opacity=".45"/>
  </g>

  <g transform="translate(500 245)">
    <circle cx="205" cy="92" r="62" fill="#f5c7a5"/>
    <path d="M145 86c4-52 35-79 82-79 37 0 65 19 75 52-51-13-92-2-157 27Z" fill="#0f172a"/>
    <rect x="100" y="168" width="210" height="250" rx="70" fill="url(#uniform)"/>
    <path d="M125 260 45 405M285 260l85 132" stroke="#f5c7a5" stroke-width="38" stroke-linecap="round"/>
    <path d="M145 408 110 555M270 408l42 147" stroke="#172554" stroke-width="54" stroke-linecap="round"/>
    <path d="M76 556h95M280 556h98" stroke="#020617" stroke-width="32" stroke-linecap="round"/>
    <rect x="176" y="212" width="58" height="46" rx="12" fill="#fff"/>
    <path d="M190 235h30M205 220v30" stroke="#0284c7" stroke-width="6" stroke-linecap="round"/>
    <rect x="20" y="410" width="112" height="48" rx="20" fill="#f97316" transform="rotate(-14 20 410)"/>
    <circle cx="393" cy="419" r="24" fill="#e2e8f0"/>
    <circle cx="393" cy="419" r="10" fill="#0ea5e9"/>
  </g>

  <g transform="translate(1080 495)">
    <rect width="380" height="225" rx="32" fill="#fff" opacity=".94"/>
    <rect x="32" y="32" width="126" height="18" rx="9" fill="#0f172a" opacity=".8"/>
    <rect x="32" y="68" width="235" height="12" rx="6" fill="#94a3b8" opacity=".55"/>
    <circle cx="82" cy="145" r="42" fill="#cffafe"/>
    <path d="m63 146 14 14 27-34" fill="none" stroke="#0891b2" stroke-width="9" stroke-linecap="round" stroke-linejoin="round"/>
    <rect x="145" y="118" width="190" height="22" rx="11" fill="#dbeafe"/>
    <rect x="145" y="157" width="145" height="16" rx="8" fill="#cbd5e1"/>
    <circle cx="329" cy="166" r="17" fill="#22c55e"/>
  </g>
</svg>
